<svg width="24" height="24" viewBox="0 0 24 24" fill="none" xmlns="http://www.w3.org/2000/svg">
<path fill-rule="evenodd" clip-rule="evenodd" d="M12.0036 19.6566C16.2302 19.6566 19.6566 16.2302 19.6566 12.0036C19.6566 7.77692 16.2302 4.35054 12.0036 4.35054C7.77692 4.35054 4.35054 7.77692 4.35054 12.0036C4.35054 16.2302 7.77692 19.6566 12.0036 19.6566ZM12.0036 21.0072C16.9761 21.0072 21.0072 16.9761 21.0072 12.0036C21.0072 7.03104 16.9761 3 12.0036 3C7.03104 3 3 7.03104 3 12.0036C3 16.9761 7.03104 21.0072 12.0036 21.0072Z" fill="#222325"/>
<path fill-rule="evenodd" clip-rule="evenodd" d="M13.4577 17.7548C14.078 16.359 14.5 14.3256 14.5 12C14.5 9.67436 14.078 7.64101 13.4577 6.24525C13.1467 5.54547 12.8152 5.07204 12.5229 4.79386C12.2383 4.52303 12.0642 4.5 12 4.5C11.9358 4.5 11.7617 4.52303 11.4771 4.79386C11.1848 5.07204 10.8533 5.54547 10.5423 6.24525C9.92195 7.64101 9.5 9.67436 9.5 12C9.5 14.3256 9.92195 16.359 10.5423 17.7548C10.8533 18.4545 11.1848 18.928 11.4771 19.2061C11.7617 19.477 11.9358 19.5 12 19.5C12.0642 19.5 12.2383 19.477 12.5229 19.2061C12.8152 18.928 13.1467 18.4545 13.4577 17.7548ZM12 21C14.2091 21 16 16.9706 16 12C16 7.02944 14.2091 3 12 3C9.79086 3 8 7.02944 8 12C8 16.9706 9.79086 21 12 21Z" fill="#222325"/>
<path fill-rule="evenodd" clip-rule="evenodd" d="M20 13.25H3.5V11.75H20V13.25Z" fill="#222325"/>
</svg>
