<svg width="24" height="24" viewBox="0 0 24 24" fill="none" xmlns="http://www.w3.org/2000/svg">
<path fill-rule="evenodd" clip-rule="evenodd" d="M16.0798 11.1549C14.8957 11.2969 13.7918 12.0713 12.9316 12.9314C11.8752 13.9878 10.8167 14.6056 9.77882 14.8648C8.73625 15.1251 7.762 15.0117 6.90112 14.6829C5.21002 14.037 3.959 12.5664 3.31445 11.4384L4.48705 10.7684C5.04298 11.7412 6.08787 12.9266 7.38296 13.4212C8.01517 13.6627 8.70658 13.7405 9.45159 13.5545C10.2013 13.3673 11.0523 12.9008 11.9767 11.9764C12.9173 11.0358 14.2893 10.0095 15.9189 9.81394C17.6168 9.61018 19.4076 10.326 21.0904 12.4895L20.0243 13.3187C18.5559 11.4307 17.1954 11.021 16.0798 11.1549Z" fill="#84888F"/>
<path fill-rule="evenodd" clip-rule="evenodd" d="M12.0036 19.6566C16.2302 19.6566 19.6566 16.2302 19.6566 12.0036C19.6566 7.77692 16.2302 4.35054 12.0036 4.35054C7.77692 4.35054 4.35054 7.77692 4.35054 12.0036C4.35054 16.2302 7.77692 19.6566 12.0036 19.6566ZM12.0036 21.0072C16.9761 21.0072 21.0072 16.9761 21.0072 12.0036C21.0072 7.03104 16.9761 3 12.0036 3C7.03104 3 3 7.03104 3 12.0036C3 16.9761 7.03104 21.0072 12.0036 21.0072Z" fill="#84888F"/>
</svg>
