<svg width="17" height="18" viewBox="0 0 17 18" fill="none" xmlns="http://www.w3.org/2000/svg">
<path d="M15.6828 8.46881H12.2545C11.9611 8.46881 11.7232 8.70666 11.7232 9.00006C11.7232 9.29346 11.9611 9.53131 12.2545 9.53131H15.6828C15.9762 9.53131 16.2141 9.29346 16.2141 9.00006C16.2141 8.70666 15.9762 8.46881 15.6828 8.46881Z" fill="#8F19F6"/>
<path fill-rule="evenodd" clip-rule="evenodd" d="M8.92533 3.72298C9.16103 3.56152 9.44004 3.4751 9.72574 3.47506C10.1125 3.46531 10.4865 3.61418 10.7607 3.8871C11.035 4.16001 11.1857 4.53323 11.1778 4.92006V13.0234C11.1964 13.5639 10.9057 14.0678 10.4285 14.3222C9.95123 14.5766 9.37079 14.5372 8.93241 14.2205L4.76741 11.4438C4.52945 11.2879 4.25145 11.2043 3.96699 11.203H2.83366C2.05126 11.203 1.41699 10.5687 1.41699 9.78631V8.15714C1.41699 7.37474 2.05126 6.74048 2.83366 6.74048H3.95991C4.24437 6.73915 4.52236 6.65551 4.76033 6.49964L8.92533 3.72298ZM9.72574 13.4626C9.93699 13.4626 10.1082 13.2913 10.1082 13.0801L10.1437 4.92006C10.1437 4.70881 9.97241 4.53756 9.76116 4.53756C9.68564 4.53777 9.61182 4.55991 9.54866 4.60131L5.38366 7.38506C4.96337 7.66185 4.47022 7.80733 3.96699 7.80298H2.83366C2.62241 7.80298 2.45116 7.97423 2.45116 8.18548V9.81464C2.45116 10.0259 2.62241 10.1971 2.83366 10.1971H3.93157C4.4348 10.1928 4.92795 10.3383 5.34824 10.6151L9.51324 13.3988C9.5764 13.4402 9.65023 13.4624 9.72574 13.4626Z" fill="#8F19F6"/>
</svg>
